<?xml version="1.0" encoding="utf-8"?>
<!-- Generator: Adobe Illustrator 28.1.0, SVG Export Plug-In . SVG Version: 6.00 Build 0)  -->
<svg version="1.1" id="Layer_1" xmlns="http://www.w3.org/2000/svg" xmlns:xlink="http://www.w3.org/1999/xlink" x="0px" y="0px"
	 width="100%" height="100%" viewBox="0 0 1080 720" style="enable-background:new 0 0 1080 720;" xml:space="preserve">
<style type="text/css">
	.st1{fill:#545757;}
	.st2{fill:#F26522;}
</style>
<g>
	<path class="st1" d="M331.4,313.7c-11.8-31.8-42.3-53.4-76.9-53.4c-34.6,0-65,21.6-76.8,53.4c-7.9,1.1-15.4,3.6-22.2,7.3
		c0.6-0.1,1.1-0.1,1.7-0.1c14.7,0,28.1,5.3,38.5,14.2l1.9-7.5c6.7-25.9,30-44.1,56.9-44.1c26.8,0,50.2,18.1,56.9,44.1l2.2,8.7l9,0
		c22.9,0.1,41.6,18.8,41.6,41.7c0,23-18.7,41.7-41.7,41.7H202.2c-9.1,10.5-21.9,17.8-36.3,19.9c6.5,2.2,13.5,3.4,20.7,3.4h135.9
		c35.8,0,65-29.1,65-65C387.5,345.3,363,318.1,331.4,313.7"/>
	<path class="st2" d="M201.9,392.9h115.3c3.4,0,6.5-1.4,8.7-3.6c2.2-2.2,3.6-5.3,3.6-8.7c0-6.8-5.5-12.2-12.2-12.2h-21.5v-13.5
		h-18.6v13.5h-8.6v-13.5h-18.6v13.5h-47.9c-5.4-19.6-23.4-34.1-44.7-34.1c-25.6,0-46.3,20.8-46.3,46.3c0,25.5,20.8,46.3,46.3,46.3
		C178.5,427,196.5,412.6,201.9,392.9 M157.3,406.4c-14.2,0-25.7-11.5-25.7-25.8c0-14.2,11.5-25.7,25.7-25.7
		c9.8,0,18.3,5.5,22.6,13.5c2,3.6,3.1,7.8,3.1,12.2c0,4.4-1.1,8.6-3.1,12.3C175.5,401,167,406.4,157.3,406.4"/>
	<path class="st1" d="M947.2,395.4c-0.5,0-1,0-1.5-0.1c-0.5-0.1-0.9-0.2-1.4-0.4c-0.4-0.2-0.8-0.4-1.2-0.6c-0.4-0.2-0.7-0.5-0.9-0.7
		l0.4-0.7c0.5,0.5,1.1,0.9,1.9,1.2c0.8,0.3,1.6,0.5,2.6,0.5c0.7,0,1.2-0.1,1.7-0.2c0.5-0.1,0.9-0.3,1.2-0.6c0.3-0.2,0.5-0.5,0.7-0.8
		c0.2-0.3,0.2-0.7,0.2-1c0-0.5-0.1-0.9-0.4-1.2c-0.2-0.3-0.6-0.6-1-0.8c-0.4-0.2-0.8-0.4-1.3-0.5c-0.5-0.1-1-0.3-1.5-0.4
		c-0.5-0.1-1-0.3-1.5-0.4c-0.5-0.2-1-0.4-1.3-0.6c-0.4-0.3-0.7-0.6-1-1c-0.2-0.4-0.4-0.9-0.4-1.5c0-0.5,0.1-0.9,0.3-1.4
		c0.2-0.4,0.5-0.8,0.9-1.1c0.4-0.3,0.9-0.6,1.5-0.8c0.6-0.2,1.3-0.3,2.1-0.3c0.7,0,1.5,0.1,2.2,0.3c0.7,0.2,1.3,0.5,1.9,0.9
		l-0.4,0.8c-0.6-0.4-1.2-0.7-1.8-0.9c-0.6-0.2-1.3-0.3-1.9-0.3c-0.7,0-1.2,0.1-1.7,0.2c-0.5,0.1-0.9,0.3-1.2,0.6
		c-0.3,0.2-0.5,0.5-0.7,0.9c-0.1,0.3-0.2,0.7-0.2,1c0,0.5,0.1,0.9,0.4,1.2c0.2,0.3,0.6,0.6,1,0.8c0.4,0.2,0.8,0.4,1.3,0.5
		c0.5,0.1,1,0.3,1.5,0.4c0.5,0.1,1,0.3,1.5,0.4c0.5,0.2,1,0.4,1.3,0.6c0.4,0.3,0.7,0.6,1,1c0.2,0.4,0.4,0.9,0.4,1.5
		c0,0.5-0.1,0.9-0.3,1.4c-0.2,0.4-0.5,0.8-0.9,1.1c-0.4,0.3-0.9,0.6-1.5,0.8C948.8,395.3,948,395.4,947.2,395.4"/>
	<polygon class="st1" points="968.1,395.3 968.1,383.7 962.5,393.5 962,393.5 956.3,383.8 956.3,395.3 955.4,395.3 955.4,381.8 
		956.2,381.8 962.2,392.2 968.3,381.8 969.1,381.8 969.1,395.3 	"/>
	<path class="st2" d="M419.2,394.4c-6.5-3.5-11.6-8.4-15.4-14.6c-3.7-6.2-5.6-13.2-5.6-21.1c0-7.8,1.9-14.9,5.6-21.1
		c3.7-6.2,8.9-11.1,15.4-14.6c6.5-3.5,13.8-5.3,22-5.3c6.9,0,13,1.2,18.6,3.6c5.5,2.4,10.2,5.9,14,10.4L462,342.7
		c-5.3-6.2-12-9.3-19.9-9.3c-4.9,0-9.3,1.1-13.1,3.2c-3.8,2.2-6.8,5.1-9,9c-2.1,3.8-3.2,8.2-3.2,13.1c0,4.9,1.1,9.3,3.2,13.1
		c2.1,3.8,5.1,6.8,9,9c3.8,2.1,8.2,3.2,13.1,3.2c7.9,0,14.5-3.1,19.9-9.4l11.8,10.8c-3.8,4.6-8.4,8.1-14,10.5
		c-5.6,2.4-11.8,3.6-18.6,3.6C433,399.6,425.8,397.9,419.2,394.4"/>
	<rect x="484.8" y="314.4" class="st2" width="17.6" height="83.8"/>
	<path class="st2" d="M530.5,395.2c-5.1-2.7-9.1-6.4-11.9-11.1c-2.9-4.7-4.3-10.1-4.3-16.2c0-6,1.4-11.4,4.3-16.2
		c2.9-4.7,6.8-8.5,11.9-11.1c5.1-2.7,10.8-4,17.2-4c6.4,0,12.1,1.3,17.2,4c5,2.7,9,6.4,11.9,11.1c2.9,4.7,4.3,10.1,4.3,16.2
		c0,6-1.4,11.4-4.3,16.2c-2.9,4.7-6.8,8.5-11.9,11.1c-5,2.7-10.8,4-17.2,4C541.4,399.2,535.6,397.8,530.5,395.2 M558.9,380.1
		c2.9-3,4.4-7.1,4.4-12.3c0-5.1-1.4-9.2-4.4-12.3c-2.9-3-6.6-4.6-11.1-4.6c-4.5,0-8.3,1.5-11.2,4.6c-2.9,3.1-4.4,7.1-4.4,12.3
		c0,5.1,1.5,9.2,4.4,12.3c2.9,3.1,6.7,4.6,11.2,4.6C552.3,384.7,556,383.2,558.9,380.1"/>
	<path class="st2" d="M654.1,337.5v60.8h-16.7V391c-2.3,2.6-5.1,4.7-8.4,6c-3.2,1.4-6.7,2.1-10.5,2.1c-8,0-14.3-2.3-19-6.9
		c-4.7-4.6-7-11.4-7-20.5v-34.4h17.6v31.8c0,9.8,4.1,14.7,12.3,14.7c4.2,0,7.6-1.4,10.2-4.1c2.6-2.7,3.8-6.8,3.8-12.3v-30.1H654.1z"
		/>
	<path class="st2" d="M732.4,314.4v83.8h-16.8v-7c-4.4,5.3-10.7,7.9-19,7.9c-5.7,0-10.9-1.3-15.5-3.8c-4.6-2.6-8.3-6.2-10.9-11
		c-2.6-4.7-4-10.2-4-16.5c0-6.2,1.3-11.7,4-16.5c2.6-4.7,6.3-8.4,10.9-11c4.6-2.6,9.8-3.8,15.5-3.8c7.8,0,13.8,2.4,18.2,7.3v-29.5
		H732.4z M710.7,380.1c2.9-3,4.4-7.1,4.4-12.3c0-5.1-1.5-9.2-4.4-12.3c-2.9-3-6.6-4.6-11.1-4.6c-4.5,0-8.2,1.5-11.2,4.6
		c-2.9,3.1-4.4,7.1-4.4,12.3c0,5.1,1.5,9.2,4.4,12.3c2.9,3.1,6.7,4.6,11.2,4.6C704.1,384.7,707.8,383.2,710.7,380.1"/>
	<polygon class="st1" points="778.8,367.2 768.1,378.3 768.1,398.3 749.9,398.3 749.9,319.2 768.1,319.2 768.1,356.1 803.2,319.2 
		823.5,319.2 790.7,354.4 825.4,398.3 804.1,398.3 	"/>
	<path class="st1" d="M889,372.9h-46c0.8,3.8,2.8,6.7,5.9,8.9c3.1,2.2,6.9,3.3,11.5,3.3c3.2,0,6-0.5,8.4-1.4
		c2.4-0.9,4.7-2.4,6.8-4.5l9.4,10.2c-5.7,6.6-14.1,9.8-25.1,9.8c-6.9,0-12.9-1.3-18.2-4c-5.3-2.7-9.3-6.4-12.2-11.1
		c-2.9-4.7-4.3-10.1-4.3-16.2c0-6,1.4-11.3,4.2-16.1c2.8-4.8,6.7-8.5,11.6-11.2c4.9-2.7,10.5-4,16.6-4c5.9,0,11.3,1.3,16.2,3.8
		c4.8,2.6,8.6,6.2,11.4,11c2.8,4.8,4.1,10.3,4.1,16.7C889.4,368.3,889.3,369.9,889,372.9 M847.8,353.3c-2.7,2.3-4.4,5.4-5,9.3h29.9
		c-0.6-3.8-2.3-6.9-5-9.2c-2.7-2.3-6-3.4-9.9-3.4C853.9,349.9,850.5,351,847.8,353.3"/>
	<path class="st1" d="M960.3,337.5L932.9,402c-2.8,7-6.2,11.9-10.3,14.8c-4.1,2.9-9.1,4.3-14.9,4.3c-3.2,0-6.3-0.5-9.4-1.5
		c-3.1-1-5.6-2.3-7.6-4.1l6.4-12.5c1.4,1.2,2.9,2.1,4.7,2.8c1.8,0.7,3.5,1,5.3,1c2.4,0,4.4-0.6,5.9-1.8c1.5-1.2,2.9-3.1,4.1-5.8
		l0.2-0.6L891,337.5h18.2l17.1,41.2l17.2-41.2H960.3z"/>
	<path class="st1" d="M524.6,419.4c1.5,0.7,2.7,1.6,3.5,2.9c0.8,1.3,1.2,2.7,1.2,4.5c0,1.7-0.4,3.2-1.2,4.4c-0.8,1.3-2,2.2-3.5,2.9
		c-1.5,0.7-3.3,1-5.3,1H514v6.8h-4.4v-23.5h9.7C521.3,418.4,523.1,418.7,524.6,419.4 M523.4,430.2c1-0.8,1.5-2,1.5-3.5
		c0-1.5-0.5-2.7-1.5-3.5c-1-0.8-2.4-1.2-4.3-1.2H514v9.3h5.1C521,431.4,522.4,431,523.4,430.2"/>
	<polygon class="st1" points="556.4,418.4 560.8,418.4 560.8,438.2 573,438.2 573,441.9 556.4,441.9 	"/>
	<path class="st1" d="M614.7,436.5H603l-2.3,5.4h-4.5l10.6-23.5h4.3l10.6,23.5h-4.6L614.7,436.5z M613.3,433l-4.4-10.3l-4.4,10.3
		H613.3z"/>
	<polygon class="st1" points="651,422.1 643.2,422.1 643.2,418.4 663.1,418.4 663.1,422.1 655.4,422.1 655.4,441.9 651,441.9 	"/>
	<polygon class="st1" points="693.6,422.1 693.6,429.2 704.9,429.2 704.9,432.9 693.6,432.9 693.6,441.9 689.2,441.9 689.2,418.4 
		706.4,418.4 706.4,422.1 	"/>
	<path class="st1" d="M737.6,440.7c-1.9-1-3.4-2.5-4.5-4.3c-1.1-1.8-1.6-3.9-1.6-6.2c0-2.3,0.5-4.3,1.6-6.2c1.1-1.8,2.6-3.3,4.5-4.3
		c1.9-1,4.1-1.6,6.5-1.6c2.4,0,4.5,0.5,6.5,1.6c1.9,1,3.4,2.5,4.5,4.3c1.1,1.8,1.6,3.9,1.6,6.2c0,2.3-0.5,4.4-1.6,6.2
		c-1.1,1.8-2.6,3.3-4.5,4.3c-1.9,1-4.1,1.6-6.5,1.6C741.7,442.2,739.6,441.7,737.6,440.7 M748.3,437.3c1.3-0.7,2.2-1.7,3-3
		c0.7-1.3,1.1-2.7,1.1-4.2c0-1.6-0.4-3-1.1-4.2c-0.7-1.3-1.7-2.2-3-2.9c-1.3-0.7-2.7-1.1-4.2-1.1c-1.6,0-3,0.4-4.2,1.1
		c-1.3,0.7-2.2,1.7-3,2.9c-0.7,1.3-1.1,2.7-1.1,4.2c0,1.6,0.4,3,1.1,4.2c0.7,1.3,1.7,2.2,3,3c1.2,0.7,2.7,1.1,4.2,1.1
		C745.7,438.4,747.1,438,748.3,437.3"/>
	<path class="st1" d="M799.5,441.9l-4.8-6.9c-0.2,0-0.5,0-0.9,0h-5.3v6.8h-4.4v-23.5h9.7c2,0,3.8,0.3,5.3,1c1.5,0.7,2.7,1.6,3.5,2.9
		c0.8,1.3,1.2,2.7,1.2,4.5c0,1.8-0.4,3.3-1.3,4.6c-0.9,1.3-2.1,2.2-3.7,2.8l5.4,7.7H799.5z M798,423.3c-1-0.8-2.4-1.2-4.3-1.2h-5.1
		v9.4h5.1c1.9,0,3.3-0.4,4.3-1.2c1-0.8,1.5-2,1.5-3.5C799.4,425.3,798.9,424.1,798,423.3"/>
	<polygon class="st1" points="853.1,441.9 853,426.3 845.3,439.2 843.4,439.2 835.7,426.5 835.7,441.9 831.5,441.9 831.5,418.4 
		835.1,418.4 844.4,434 853.6,418.4 857.2,418.4 857.2,441.9 	"/>
</g>
</svg>
